<svg width="237" height="42" viewBox="0 0 237 42" fill="none" xmlns="http://www.w3.org/2000/svg">
<path d="M43.1016 21.4273C43.1703 18.5084 42.6748 15.5895 41.4778 12.9257C34.86 -1.7473 15.8455 0.646686 8.27104 0.690837H0V41.4622H19.5689C22.4584 40.7362 36.1208 33.9761 35.3212 19.4405H17.17V25.764H27.4622C23.9154 37.3218 10.4688 34.7071 6.76008 34.9229C6.76008 32.4652 6.76008 16.5069 6.76008 7.27431H8.0699V34.0546H14.6092V7.45091C14.6092 7.45091 35.4242 4.84107 36.631 19.4405C38.0144 35.0161 23.5474 41.4671 23.5474 41.4671C23.5474 41.4671 42.6356 41.4671 43.0967 21.4322L43.1016 21.4273Z" fill="#A3A3A3"/>
<path d="M73.8211 31.1552H76.1465V37.7681C75.3076 38.4598 74.3313 38.9946 73.2177 39.3674C72.1042 39.7402 70.9415 39.9266 69.7298 39.9266C68.0177 39.9266 66.4773 39.5489 65.1037 38.8032C63.7301 38.0527 62.6557 37.0176 61.8708 35.7028C61.0859 34.3881 60.6984 32.9066 60.6984 31.2582C60.6984 29.6099 61.0908 28.1284 61.8708 26.8039C62.6557 25.4793 63.735 24.4491 65.1135 23.7034C66.492 22.9627 68.0471 22.5898 69.7739 22.5898C71.1279 22.5898 72.3592 22.8106 73.4679 23.257C74.5717 23.7034 75.5136 24.351 76.2887 25.2046L74.7876 26.7057C73.4336 25.3959 71.7951 24.7435 69.872 24.7435C68.5818 24.7435 67.4241 25.0231 66.3988 25.5774C65.3735 26.1367 64.569 26.9069 63.9901 27.9027C63.4063 28.8937 63.1169 30.0122 63.1169 31.2582C63.1169 32.5043 63.4063 33.5934 63.9901 34.5892C64.5739 35.5802 65.3735 36.3602 66.3988 36.9243C67.4241 37.4885 68.572 37.773 69.8475 37.773C71.3634 37.773 72.6879 37.41 73.8211 36.684V31.165V31.1552Z" fill="#A3A3A3"/>
<path d="M91.57 35.492H82.5631L80.6989 39.7305H78.2068L85.8842 22.7812H88.2831L95.9851 39.7305H93.4439L91.5798 35.492H91.57ZM90.7213 33.5542L87.0665 25.2488L83.4118 33.5542H90.7262H90.7213Z" fill="#A3A3A3"/>
<path d="M114.21 39.7305L114.185 27.3828L108.058 37.675H106.944L100.817 27.4564V39.7354H98.4919V22.7812H100.479L107.548 34.6972L114.524 22.7812H116.511L116.535 39.7305H114.21Z" fill="#A3A3A3"/>
<path d="M133.921 37.621V39.7256H121.618V22.7812H133.578V24.8858H124.036V30.0908H132.538V32.1512H124.036V37.6259H133.916L133.921 37.621Z" fill="#A3A3A3"/>
<path d="M144.355 22.7812H151.498C153.289 22.7812 154.878 23.1345 156.267 23.8458C157.655 24.5571 158.734 25.553 159.499 26.8383C160.265 28.1236 160.652 29.5953 160.652 31.2583C160.652 32.9214 160.27 34.3931 159.499 35.6784C158.734 36.9637 157.655 37.9595 156.267 38.6709C154.878 39.3822 153.289 39.7354 151.498 39.7354H144.355V22.7812ZM151.356 37.6259C152.73 37.6259 153.936 37.361 154.976 36.8263C156.016 36.2916 156.821 35.5459 157.385 34.5844C157.949 33.6229 158.234 32.5142 158.234 31.2534C158.234 29.9927 157.949 28.884 157.385 27.9224C156.821 26.9609 156.016 26.2153 154.976 25.6805C153.936 25.1458 152.73 24.8809 151.356 24.8809H146.779V37.6161H151.356V37.6259Z" fill="#A3A3A3"/>
<path d="M176.66 37.621V39.7256H164.356V22.7812H176.316V24.8858H166.775V30.0908H175.276V32.1512H166.775V37.6259H176.655L176.66 37.621Z" fill="#A3A3A3"/>
<path d="M181.83 39.3282C180.643 38.9308 179.711 38.4206 179.034 37.7927L179.932 35.904C180.579 36.4829 181.404 36.9587 182.414 37.3217C183.425 37.6848 184.46 37.8663 185.524 37.8663C186.927 37.8663 187.977 37.6308 188.674 37.15C189.365 36.6742 189.714 36.0413 189.714 35.2515C189.714 34.6726 189.522 34.1968 189.145 33.8338C188.767 33.4707 188.296 33.1911 187.742 32.9998C187.182 32.8036 186.398 32.5877 185.382 32.3473C184.107 32.0432 183.076 31.7341 182.296 31.4251C181.511 31.1209 180.844 30.6451 180.285 30.0073C179.726 29.3696 179.451 28.5111 179.451 27.4269C179.451 26.5243 179.691 25.7099 180.167 24.979C180.643 24.2529 181.364 23.6691 182.336 23.2374C183.307 22.8008 184.509 22.585 185.946 22.585C186.947 22.585 187.933 22.7125 188.899 22.9725C189.866 23.2325 190.7 23.6004 191.392 24.0861L190.592 26.0239C189.881 25.5725 189.12 25.2291 188.316 24.9937C187.506 24.7582 186.716 24.6405 185.941 24.6405C184.568 24.6405 183.537 24.8906 182.856 25.391C182.169 25.8914 181.825 26.539 181.825 27.3288C181.825 27.9126 182.017 28.3835 182.404 28.7465C182.792 29.1096 183.273 29.3941 183.847 29.5952C184.421 29.7964 185.201 30.0122 186.182 30.2379C187.457 30.5469 188.482 30.8511 189.258 31.1602C190.033 31.4692 190.7 31.9353 191.254 32.5632C191.813 33.1911 192.088 34.0398 192.088 35.1043C192.088 35.9923 191.848 36.8017 191.362 37.5376C190.876 38.2734 190.145 38.8523 189.159 39.2791C188.173 39.7059 186.962 39.9218 185.529 39.9218C184.254 39.9218 183.022 39.7255 181.835 39.3282H181.83Z" fill="#A3A3A3"/>
<path d="M195.62 22.7812H198.044V39.7305H195.62V22.7812Z" fill="#A3A3A3"/>
<path d="M217.701 22.7812V39.7305H215.714L205.545 27.0885V39.7305H203.121V22.7812H205.108L215.277 35.4233V22.7812H217.701Z" fill="#A3A3A3"/>
<path d="M234.532 31.1552H236.858V37.7681C236.019 38.4598 235.043 38.9946 233.929 39.3674C232.815 39.7402 231.653 39.9266 230.441 39.9266C228.729 39.9266 227.188 39.5489 225.815 38.8032C224.441 38.0527 223.367 37.0176 222.582 35.7028C221.797 34.3881 221.41 32.9066 221.41 31.2582C221.41 29.6099 221.802 28.1284 222.582 26.8039C223.367 25.4793 224.446 24.4491 225.825 23.7034C227.203 22.9627 228.758 22.5898 230.485 22.5898C231.839 22.5898 233.07 22.8106 234.179 23.257C235.283 23.7034 236.225 24.351 237 25.2046L235.499 26.7057C234.145 25.3959 232.506 24.7435 230.583 24.7435C229.293 24.7435 228.135 25.0231 227.11 25.5774C226.085 26.1367 225.28 26.9069 224.701 27.9027C224.118 28.8937 223.828 30.0122 223.828 31.2582C223.828 32.5043 224.118 33.5934 224.701 34.5892C225.285 35.5802 226.085 36.3602 227.11 36.9243C228.135 37.4885 229.283 37.773 230.559 37.773C232.075 37.773 233.399 37.41 234.532 36.684V31.165V31.1552Z" fill="#A3A3A3"/>
</svg>
