<svg width="433" height="62" viewBox="0 0 433 62" fill="none" xmlns="http://www.w3.org/2000/svg">
<path d="M48.9497 51.3831C43.8407 57.1646 37.3868 60.06 29.5786 60.06C21.238 60.1067 14.2704 57.5942 8.66642 52.5319C3.2399 47.6004 0.531311 41.5481 0.531311 34.3751C0.531311 26.0345 3.10914 19.263 8.2648 14.07C12.6546 9.63349 17.6608 7.27982 23.2648 7.00896C26.4964 6.8315 29.0742 7.56936 30.9983 9.23187C32.6141 10.6702 33.3706 12.3234 33.2866 14.2101C33.2866 15.555 32.8569 16.6758 32.007 17.5725C31.1571 18.4691 30.083 18.9174 28.7754 18.9174C27.8787 18.9174 27.1035 18.6746 26.4591 18.1796C25.8053 17.6845 25.5064 17.1241 25.5531 16.4984C25.5531 15.7792 25.9827 15.471 26.8327 15.555C27.6826 15.6484 28.1589 15.1721 28.243 14.1447C28.3364 13.2014 27.9254 12.3421 27.0288 11.5575C26.1322 10.773 24.9647 10.3807 23.5356 10.3807C20.3974 10.334 17.6141 12.23 15.1951 16.0594C12.776 19.8888 11.5618 24.2505 11.5618 29.1353C11.5618 30.2561 11.6272 31.3769 11.7673 32.4977C12.6172 38.1017 15.083 42.5662 19.1645 45.8819C22.8818 48.8894 27.1876 50.3838 32.0724 50.3838C38.2554 50.3838 43.1589 49.0014 46.7641 46.2461C50.3694 43.4909 52.1813 39.867 52.1813 35.3838C52.1813 34.8888 52.1626 34.3751 52.1159 33.8333C51.8451 30.966 50.2106 28.2947 47.2031 25.829C44.4665 23.905 41.7112 21.9529 38.9279 19.9822C35.8364 17.6472 34.0618 15.1627 33.6135 12.5195C33.4827 11.8004 33.408 11.0812 33.408 10.3713C33.408 7.00896 34.6222 4.27235 37.0412 2.17086C38.573 0.81656 40.3196 0.0973832 42.2903 0.00398353C43.6819 -0.0427163 44.756 0.321542 45.5219 1.07808C46.2878 1.84396 46.3532 2.51643 45.7274 3.09551C45.1016 3.72129 44.4758 3.72129 43.8407 3.09551C43.6166 2.87135 43.2803 2.75927 42.832 2.75927C42.337 2.75927 41.87 2.98343 41.4217 3.43175C40.9734 3.88007 40.7679 4.44047 40.8146 5.11294C40.908 6.63536 41.8046 8.16711 43.5045 9.68953C46.7361 12.5102 48.903 14.5743 50.0238 15.8726C54.1521 20.6733 56.1882 26.3894 56.1415 33.0208C56.0481 39.9697 53.657 46.0874 48.9497 51.3831Z" fill="#A3A3A3"/>
<path d="M113.507 48.6274C114.498 48.6274 115.282 49.001 115.861 49.7389C116.44 50.4767 116.711 51.4107 116.664 52.5315C116.618 54.9506 115.319 57.0334 112.77 58.7893C109.902 60.8067 106.166 61.8154 101.552 61.8154C98.1526 61.8154 94.9023 61.2083 91.8201 60.0035C83.0498 56.6411 76.4185 49.963 71.9446 39.9599L72.01 49.468C72.0567 51.5695 72.1688 53.0172 72.3463 53.8204C72.7852 55.6044 73.7005 56.501 75.0735 56.501H77.4739C78.3612 56.501 78.8095 56.9587 78.8095 57.8833C78.8095 58.808 78.3612 59.2656 77.4646 59.2656H53.5916C52.695 59.2656 52.2466 58.808 52.2466 57.8833C52.2466 56.9587 52.695 56.501 53.5916 56.501H56.0107C58.0281 56.501 59.0835 54.1473 59.1676 49.4493C59.2143 47.0303 59.2329 40.539 59.2329 29.9755C59.1862 19.7669 59.1676 14.1723 59.1676 13.1822C59.0742 10.5857 57.9534 9.01661 55.8052 8.48423C53.0686 7.76505 51.3874 6.86842 50.7616 5.79432C50.3133 5.03778 50.4721 4.43069 51.2286 3.98237C51.7236 3.66481 52.3307 3.82359 53.0405 4.44937C53.9839 5.21524 55.5717 5.70092 57.8133 5.92508C58.7566 6.01848 61.5306 5.99046 66.1539 5.84102C70.7678 5.69158 73.934 5.52346 75.6339 5.31798C76.9322 5.22458 78.2304 5.18722 79.538 5.18722C86.2628 5.18722 92.1376 6.64426 97.1532 9.55833C102.626 12.7433 105.606 16.9089 106.101 22.0645C106.148 22.6436 106.166 23.232 106.166 23.8111C106.166 28.6119 104.336 32.3852 100.684 35.1405C97.0318 37.8958 92.3992 39.2501 86.7952 39.2127C83.5635 39.2127 80.5187 38.4749 77.6514 36.9898C75.0922 35.6448 73.1682 34.0104 71.8699 32.077H71.9353C73.3176 36.1585 74.868 39.605 76.5679 42.435C78.6227 40.9593 80.911 40.2121 83.4141 40.2121C83.9465 40.2121 84.4882 40.2308 85.0206 40.2775C87.1688 40.5483 89.5224 41.7999 92.0723 44.0415C94.2672 46.1523 96.462 48.2818 98.6476 50.43C100.842 52.4007 102.701 53.727 104.224 54.3995C105.522 54.9412 106.951 55.1654 108.52 55.072C110.986 54.9412 112.639 54.4929 113.489 53.727C113.806 53.4095 113.956 53.0078 113.956 52.5128C113.956 51.7937 113.75 51.392 113.349 51.2986C112.452 51.1212 112.004 50.6729 112.004 49.9537C112.004 49.057 112.499 48.6087 113.479 48.6087L113.507 48.6274ZM71.9446 12.8086V19.3746C73.1028 18.1231 74.345 17.488 75.6806 17.488C76.7921 17.488 77.7728 17.8896 78.6134 18.7022C79.3232 19.3746 79.7248 20.0938 79.8089 20.8503C79.9023 21.5695 79.6781 22.1206 79.1364 22.4942C78.5947 22.8771 77.9969 22.9051 77.3245 22.5969C76.4745 21.7003 75.8487 21.252 75.4378 21.252C74.9428 21.252 74.3917 21.5789 73.7939 22.2233C73.1868 22.8771 72.888 23.643 72.888 24.5396C72.7946 26.4637 73.5137 28.4157 75.0362 30.3864C76.7827 32.6747 78.9589 33.8142 81.5555 33.8142C84.4695 33.8142 86.8419 32.6934 88.6818 30.4425C90.5218 28.1916 91.4652 25.2028 91.5025 21.4761C91.5492 16.7594 89.3543 13.2289 84.9085 10.8939C81.4994 9.05397 78.0716 8.30677 74.6159 8.67103C72.8226 8.81113 71.926 10.1841 71.926 12.7993L71.9446 12.8086Z" fill="#A3A3A3"/>
<path d="M142.359 57.8366C142.359 58.7332 141.91 59.1816 141.014 59.1816H117.01C116.113 59.1816 115.665 58.7332 115.665 57.8366C115.665 56.94 116.113 56.4917 117.01 56.4917H119.429C121.446 56.4917 122.502 54.138 122.586 49.4306C122.633 46.9649 122.651 40.3709 122.651 29.6579C122.651 18.945 122.633 13.5652 122.586 12.5751C122.539 11.006 122.455 10.044 122.315 9.67975C121.96 8.60565 121.176 8.06393 119.961 8.06393H117.001C116.104 8.06393 115.656 7.61562 115.656 6.71898C115.656 5.82234 116.104 5.37402 117.001 5.37402H141.004C141.901 5.37402 142.349 5.82234 142.349 6.71898C142.349 7.61562 141.901 8.06393 141.004 8.06393H138.109C136.941 8.06393 136.157 8.51225 135.755 9.40889C135.531 9.95061 135.419 10.8846 135.419 12.2296C135.326 33.1231 135.326 45.5172 135.419 49.4213C135.466 51.5321 135.578 52.9892 135.755 53.7924C136.204 55.5857 137.119 56.4823 138.511 56.4823H140.995C141.892 56.4823 142.34 56.9306 142.34 57.8273L142.359 57.8366Z" fill="#A3A3A3"/>
<path d="M186.2 52.3255C188.76 53.1754 190.17 54.6978 190.441 56.9021C190.571 57.752 190.235 58.2657 189.432 58.4525C188.535 58.63 187.994 58.2937 187.816 57.4438C187.816 57.313 187.769 57.1729 187.685 57.0422C187.144 55.7906 186.247 55.1555 184.996 55.1555C183.968 55.1555 181.951 55.8747 178.943 57.3037C175.581 58.8261 171.817 59.592 167.642 59.592C159.89 59.592 153.277 57.4625 147.804 53.2035C142.06 48.7203 139.015 42.8454 138.66 35.5883C138.258 27.8361 140.519 20.9245 145.45 14.8722C150.606 8.59578 157.088 5.29877 164.887 4.99055C168.249 4.85979 171.098 5.42019 173.423 6.67175C173.377 6.22343 173.358 6.01795 173.358 6.06465C173.358 5.43887 173.451 4.78507 173.629 4.1126C173.853 3.26266 174.413 2.9451 175.31 3.16926C176.16 3.44012 176.449 4.00052 176.188 4.85045C176.057 5.25207 175.982 5.65369 175.982 6.06465C175.982 7.09204 176.431 8.0167 177.327 8.81994L181.969 13.0603C182.642 13.6394 182.689 14.2745 182.1 14.947C181.521 15.6194 180.886 15.6661 180.213 15.0777C178.42 13.5553 176.804 12.2757 175.375 11.2483C172.555 9.2309 169.304 8.22218 165.624 8.22218C164.681 8.22218 163.812 8.28756 163 8.42766C159.32 9.19354 156.172 11.6406 153.548 15.7876C150.923 19.9345 149.616 24.3616 149.616 29.069C149.616 35.3921 151.988 40.884 156.742 45.5447C161.496 50.2053 167.035 52.5403 173.349 52.5403C178.458 52.5403 182.408 51.0366 185.182 48.0385C187.2 45.8903 188.274 43.5553 188.414 41.0428C188.507 38.4463 187.704 36.1674 186.023 34.2153C184.342 32.2633 182.25 31.2919 179.737 31.2919C178.299 31.2919 177.113 31.5908 176.169 32.1979C175.226 32.805 174.759 33.5802 174.759 34.5142C174.759 34.8691 174.815 35.1773 174.927 35.4202C175.039 35.663 175.431 35.9712 176.104 36.3261C176.646 36.6437 176.935 37.2041 176.982 38.0073C177.075 39.0814 176.365 40.1462 174.862 41.2016C173.358 42.257 171.845 42.696 170.322 42.5092C168.212 42.3317 166.493 41.4538 165.148 39.8847C163.672 38.1848 163 35.9806 163.131 33.2906C163.308 30.1057 164.737 27.4532 167.399 25.3237C170.07 23.1941 173.573 22.1481 177.925 22.1948C179.672 22.1948 181.381 22.5497 183.034 23.2689C184.603 23.7172 185.939 23.6611 187.032 23.1007C188.134 22.5403 188.703 22.2601 188.75 22.2601C188.974 22.2601 189.18 22.3255 189.357 22.4656C190.03 22.8205 190.217 23.521 189.927 24.5484C189.637 25.5758 189.712 26.678 190.161 27.8454C190.431 28.4245 190.88 30.0684 191.505 32.7583C192 34.8691 192.197 37.4469 192.113 40.4918C191.935 44.8442 189.964 48.7856 186.191 52.3255H186.2Z" fill="#A3A3A3"/>
<path d="M218.75 57.8366C218.75 58.7332 218.302 59.1816 217.405 59.1816H193.402C192.505 59.1816 192.057 58.7332 192.057 57.8366C192.057 56.94 192.505 56.4917 193.402 56.4917H195.821C197.838 56.4917 198.893 54.138 198.978 49.4306C199.024 46.9649 199.043 40.3709 199.043 29.6579C199.043 18.945 199.024 13.5652 198.978 12.5751C198.931 11.006 198.847 10.044 198.707 9.67975C198.352 8.60565 197.567 8.06393 196.353 8.06393H193.392C192.496 8.06393 192.047 7.61562 192.047 6.71898C192.047 5.82234 192.496 5.37402 193.392 5.37402H217.396C218.293 5.37402 218.741 5.82234 218.741 6.71898C218.741 7.61562 218.293 8.06393 217.396 8.06393H214.501C213.333 8.06393 212.549 8.51225 212.147 9.40889C211.923 9.95061 211.811 10.8846 211.811 12.2296C211.717 33.1231 211.717 45.5172 211.811 49.4213C211.857 51.5321 211.969 52.9892 212.147 53.7924C212.595 55.5857 213.511 56.4823 214.902 56.4823H217.387C218.283 56.4823 218.732 56.9306 218.732 57.8273L218.75 57.8366Z" fill="#A3A3A3"/>
<path d="M270.933 56.4921C271.829 56.4921 272.278 56.9497 272.278 57.8744C272.278 58.799 271.829 59.2567 270.933 59.2567H261.994C261.415 59.2567 260.92 58.9018 260.519 58.1826C260.425 58.0051 252.15 43.4535 235.693 14.5463C235.422 15.583 234.862 16.956 234.012 18.6559C232.667 21.3551 231.733 23.6247 231.191 25.4647C230.388 28.2574 229.986 30.7698 229.986 33.0207C229.986 36.3925 230.836 39.4747 232.545 42.258C234.787 46.0313 237.542 49.291 240.821 52.0369C244.23 54.9136 247.228 56.3987 249.834 56.4921C250.189 56.4921 250.954 56.5107 252.122 56.5574C253.019 56.5574 253.467 57.0058 253.467 57.9024C253.467 58.799 253.019 59.2474 252.122 59.2474H222.533C221.636 59.2474 221.188 58.799 221.188 57.9024C221.188 57.0058 221.646 56.5668 222.57 56.5855C223.486 56.6041 224.214 56.5761 224.756 56.4827C225.475 56.352 225.83 55.969 225.83 55.3339C225.83 54.6147 224.821 53.2698 222.804 51.2897C219.712 48.2355 218.162 44.6116 218.162 40.4367C218.162 34.4591 220.609 28.7711 225.494 23.3819L228.922 19.6085C231.882 16.3302 233.339 14.0139 233.293 12.6596C233.246 11.6229 232.844 10.6235 232.078 9.66148C231.313 8.69012 230.444 8.21379 229.454 8.21379C228.202 8.16709 227.231 8.14841 226.558 8.14841C225.662 8.14841 225.214 7.70009 225.214 6.80345C225.214 5.90681 225.662 5.4585 226.558 5.4585H244.445C245.07 5.4585 245.5 5.74804 245.724 6.33645L263.209 37.0743V11.5762C263.209 9.33458 262.461 8.19511 260.967 8.14841H258.38C257.474 8.14841 257.016 7.70009 257.016 6.80345C257.016 5.90681 257.464 5.4585 258.361 5.4585H270.933C271.829 5.4585 272.278 5.90681 272.278 6.80345C272.278 7.70009 271.829 8.14841 270.933 8.14841H268.374C266.804 8.14841 265.973 9.24118 265.889 11.4361V46.1527C265.889 49.9541 266.048 52.5506 266.356 53.9423C266.758 55.6421 267.542 56.4921 268.71 56.4921H270.933Z" fill="#A3A3A3"/>
<path d="M342.617 5.31751C347.371 5.81253 351.789 8.0261 355.861 11.9769C360.391 16.3667 362.632 21.3916 362.586 27.0423C362.539 32.6929 360.475 37.4657 356.375 41.3698C352.284 45.2739 347.343 47.2166 341.571 47.2166C334.631 47.2166 329.644 44.8442 326.599 40.0902C326.599 45.6755 326.58 48.2346 326.534 47.7957C326.618 51.6811 326.954 54.1375 327.533 55.1649C327.972 56.0148 328.71 56.4351 329.728 56.4351H332.128C333.015 56.4351 333.464 56.8928 333.464 57.8175C333.464 58.7421 333.015 59.1998 332.119 59.1998H308.18C307.284 59.1998 306.836 58.7421 306.836 57.8175C306.836 56.8928 307.284 56.4351 308.18 56.4351H310.6C312.617 56.4351 313.672 54.0815 313.756 49.3835C313.803 46.9644 313.822 40.4078 313.822 29.7042C313.822 19.0006 313.794 13.6301 313.756 12.6494C313.663 10.0529 312.57 8.48376 310.459 7.95138C307.676 7.2322 305.976 6.33557 305.35 5.26147C304.902 4.50493 305.061 3.89784 305.817 3.44952C306.312 3.13196 306.92 3.29074 307.629 3.90718C308.573 4.64503 310.161 5.12137 312.402 5.33619C313.345 5.42959 316.138 5.41091 320.771 5.28949C325.413 5.16807 328.579 5.02797 330.288 4.86919C333.025 4.59833 337.125 4.75711 342.598 5.33619L342.617 5.31751ZM336.565 41.0242C339.432 41.0242 341.879 39.7166 343.897 37.0921C345.914 34.4675 347.035 31.1145 347.259 27.0423C347.707 19.15 345.578 13.3872 340.87 9.76333C339.124 8.46508 336.817 7.81128 333.94 7.81128C333.538 7.81128 331.969 7.94204 329.233 8.2129C327.486 8.34366 326.59 9.71663 326.543 12.3131V27.3131C327.71 26.0989 328.962 25.5012 330.307 25.5012C331.428 25.5012 332.418 25.8841 333.268 26.6406C333.987 27.3598 334.388 28.079 334.482 28.7888C334.575 29.508 334.332 30.0591 333.772 30.4327C333.212 30.8156 332.614 30.8436 331.988 30.5354L331.25 29.7976C330.895 29.4426 330.484 29.2558 330.036 29.2558C329.541 29.2558 329.027 29.5454 328.486 30.1338C327.86 30.853 327.524 31.6562 327.477 32.5528C327.43 34.3928 328.215 36.2048 329.831 37.998C331.67 40.0155 333.912 41.0242 336.555 41.0242H336.565Z" fill="#A3A3A3"/>
<path d="M417.738 45.6009C415.852 48.8325 414.89 51.1395 414.843 52.5312C414.75 54.0069 415.002 55.0903 415.581 55.7628C415.982 56.2111 417.552 56.482 420.288 56.566C421.185 56.6127 421.614 57.0797 421.568 57.9764C421.474 58.8263 420.989 59.2559 420.092 59.2559C417.533 59.2092 411.032 59.2092 400.59 59.2559H399.114C398.218 59.3026 397.723 58.8637 397.639 57.9483C397.592 57.033 398.022 56.5474 398.918 56.5007H400.469C401.944 56.5007 403.093 55.5667 403.896 53.6893C404.522 52.2136 404.812 50.6071 404.774 48.8606C404.681 45.1993 402.71 41.0897 398.853 36.5318C396.929 39.2217 395.024 41.8929 393.137 44.5362C390.578 48.3936 389.307 51.1955 389.307 52.9421C389.307 53.213 389.354 53.4838 389.438 53.7454C389.709 54.7354 389.887 55.3145 389.98 55.4919C390.288 56.071 390.746 56.3886 391.325 56.4353C392.268 56.482 393.324 56.5007 394.482 56.5007C395.378 56.5941 395.78 57.0797 395.696 57.9764C395.649 58.7796 395.182 59.1906 394.286 59.1906C391.642 59.0972 384.441 59.1252 372.701 59.2559C371.804 59.2559 371.356 58.7983 371.356 57.8736C371.356 56.949 371.804 56.4913 372.701 56.4913H374.653C375.596 56.4446 376.063 55.8469 376.063 54.6794C376.063 54.2777 375.97 53.8107 375.793 53.269C375.251 51.9708 369.647 38.0729 358.981 11.5661C358.626 10.6227 358.355 10.0156 358.177 9.75413C357.822 9.08165 357.374 8.63333 356.832 8.40917C355.889 8.05425 354.656 7.94217 353.134 8.07293C352.237 8.07293 351.789 7.62461 351.789 6.72798C351.789 5.83134 352.237 5.38302 353.134 5.38302L375.662 5.31764C376.605 5.31764 377.072 5.78464 377.072 6.72798C377.072 7.67131 376.605 8.07293 375.662 8.07293C374.046 8.07293 372.878 8.40917 372.169 9.08165C371.944 9.30581 371.832 9.66073 371.832 10.1557C371.832 11.1831 372.346 12.9577 373.383 15.4702L386.263 46.2173C388.467 43.0791 391.521 38.5679 395.425 32.7024C392.063 28.9384 389.756 25.959 388.495 23.7547C386.926 21.1115 386.141 18.5057 386.141 15.9559C386.141 14.7884 386.272 13.5555 386.543 12.2572C387.169 9.69809 388.448 7.66197 390.372 6.13956C392.119 4.7012 394.052 3.99137 396.154 3.99137C398.75 3.99137 401.085 5.06546 403.149 7.223C405.438 9.55799 406.577 12.4721 406.577 15.9652C406.577 19.4583 405.886 22.7834 404.494 26.3232C408.436 30.5822 410.929 34.1034 411.957 36.8774C412.499 35.5324 414.665 31.3388 418.476 24.3058C421.035 19.4677 422.418 15.741 422.642 13.1445C422.866 9.95961 422.306 7.52187 420.961 5.81266C419.887 4.42101 418.588 3.74853 417.057 3.79523C415.263 3.84193 414.255 4.62648 414.03 6.1489C413.853 7.40045 414.161 8.16633 414.974 8.43719C415.151 7.85811 415.581 7.55923 416.253 7.55923C417.15 7.60593 417.598 8.07293 417.598 8.96957C417.552 9.81951 417.113 10.4359 416.291 10.8189C415.459 11.2018 414.647 11.2298 413.834 10.9216C411.863 10.0717 411.051 8.52125 411.415 6.27966C411.639 4.71054 412.499 3.35625 414.002 2.20743C415.506 1.06796 417.215 0.488881 419.149 0.488881C423.408 0.442181 426.817 1.89921 429.367 4.85998C431.926 7.82075 433.019 11.454 432.664 15.7504C432.262 20.906 430.179 26.5754 426.406 32.7678C423.492 37.0735 420.596 41.3512 417.729 45.6103L417.738 45.6009ZM397.228 18.9073C398.619 20.2522 399.74 21.3544 400.59 22.2043C401.309 19.8319 401.664 17.5156 401.664 15.274C401.664 12.5841 400.992 10.4546 399.647 8.88551C398.479 7.44715 397.088 6.73732 395.481 6.73732C394.36 6.73732 393.482 7.13894 392.857 7.95151C392.231 8.75475 391.913 9.67941 391.913 10.7068C391.913 12.6775 393.688 15.4141 397.228 18.9073Z" fill="#A3A3A3"/>
</svg>
