<svg width="46" height="39" viewBox="0 0 46 39" fill="none" xmlns="http://www.w3.org/2000/svg">
<path d="M36.6576 38.9988C36.4391 38.952 36.216 38.9216 36.0034 38.8549C35.4375 38.6771 34.9309 38.3881 34.4579 38.0266C32.8253 36.7771 31.1846 35.5405 29.5462 34.2992C27.9206 33.0672 26.2938 31.8353 24.6693 30.5998C24.5891 30.539 24.545 30.546 24.4764 30.6127C22.8357 32.1886 21.1938 33.7622 19.5519 35.3357C19.2347 35.6399 18.9256 35.9523 18.5979 36.2448C18.1168 36.6742 17.5684 36.8415 16.949 36.5806C16.5191 36.4004 16.2518 36.0494 16.0485 35.6423C16.0322 35.6083 16.038 35.5615 16.0403 35.5206C16.1205 34.5261 16.203 33.5317 16.2832 32.5373C16.3541 31.6621 16.4226 30.7882 16.4924 29.9131C16.5632 29.0345 16.6341 28.157 16.7096 27.2784C16.7143 27.2292 16.7433 27.1696 16.7794 27.1356C18.147 25.878 19.517 24.6238 20.887 23.3684C22.4336 21.9505 23.9802 20.5337 25.5268 19.1157C27.2059 17.5772 28.8862 16.0388 30.5653 14.4991C32.1479 13.0484 33.7294 11.5977 35.312 10.1469C36.3601 9.18526 37.4105 8.22591 38.4552 7.26071C38.5865 7.1402 38.7085 7.00098 38.8026 6.85006C38.9804 6.56342 38.8596 6.34932 38.5237 6.32593C38.1252 6.29902 37.7557 6.41601 37.4164 6.60437C36.9783 6.84772 36.5565 7.12266 36.1312 7.38823C34.7577 8.2458 33.3866 9.1057 32.0143 9.96444C30.4165 10.9647 28.8176 11.9639 27.2199 12.9642C25.7325 13.8943 24.2452 14.8244 22.759 15.7545C21.4053 16.6015 20.0527 17.4485 18.699 18.2956C17.2186 19.2222 15.7382 20.1476 14.2567 21.0742C13.3922 21.6147 12.5288 22.1564 11.6631 22.6934C11.6166 22.7226 11.5411 22.7378 11.49 22.7215C10.314 22.3482 9.13926 21.9692 7.96449 21.5913C6.08438 20.9864 4.20544 20.3828 2.32534 19.7779C1.97325 19.6644 1.61884 19.5544 1.26792 19.4374C0.862386 19.3017 0.503331 19.0888 0.239558 18.7437C-0.0648838 18.3447 -0.0765038 17.8767 0.189593 17.4333C0.454527 16.9923 0.839147 16.6822 1.29116 16.4681C1.73388 16.2587 2.19403 16.0879 2.65069 15.9089C4.06833 15.352 5.48712 14.7998 6.90591 14.2464C8.50249 13.624 10.0991 13.0016 11.6956 12.378C13.2992 11.7521 14.9016 11.125 16.5051 10.4991C17.91 9.9504 19.3148 9.40404 20.7197 8.85534C22.2187 8.27037 23.7165 7.68423 25.2143 7.09926C26.7202 6.51078 28.2262 5.92464 29.7309 5.33616C31.4182 4.67748 33.1054 4.01881 34.7914 3.3613C36.3043 2.77048 37.8172 2.18083 39.3302 1.59118C40.3934 1.17585 41.4543 0.758183 42.5198 0.347534C43.0509 0.141625 43.597 -0.00344749 44.1699 6.23272e-05C44.6904 0.00240221 45.1634 0.141625 45.5155 0.558124C45.8129 0.910275 45.928 1.33613 45.9791 1.78539C45.9837 1.82166 45.993 1.85793 46 1.89419V2.66284C45.9942 2.6839 45.9849 2.70379 45.9814 2.72602C45.9384 3.03489 45.9105 3.34726 45.8489 3.65261C45.6444 4.66695 45.4271 5.67778 45.2168 6.68978C44.8043 8.66347 44.393 10.6372 43.9816 12.6108C43.5703 14.5845 43.1578 16.5582 42.7464 18.5319C42.3711 20.3289 41.9969 22.126 41.6228 23.923C41.1626 26.133 40.7025 28.3419 40.2423 30.5519C39.8403 32.4811 39.4382 34.4115 39.035 36.3407C38.9177 36.9023 38.755 37.4498 38.4645 37.9506C38.2077 38.3916 37.8742 38.7485 37.3745 38.9076C37.2444 38.9497 37.1073 38.9696 36.9736 39H36.6587L36.6576 38.9988Z" fill="#A3A3A3"/>
</svg>
