<svg width="66" height="38" viewBox="0 0 66 38" fill="none" xmlns="http://www.w3.org/2000/svg">
<path d="M6.78154 1.66579C8.22524 1.66579 9.66895 1.63686 11.1106 1.67406C12.5114 1.71125 13.4344 2.27956 14.0429 3.83362C15.2355 6.88593 16.6996 9.80806 18.4333 12.5835C19.3032 13.9763 20.22 15.3423 21.1961 16.6608C21.6597 17.287 22.2702 17.8181 22.8787 18.3099C23.3831 18.717 24.0264 18.8989 24.6124 18.4814C24.9187 18.2624 25.2148 17.9069 25.321 17.5535C25.5905 16.6629 25.8499 15.7453 25.9295 14.8236C26.0582 13.3481 26.0929 11.8581 26.0663 10.3764C26.0377 8.86157 26.0377 7.34264 25.7049 5.84439C25.2945 3.99481 24.4041 3.07932 22.3458 2.65154C21.8904 2.55648 21.8312 2.45108 22.111 2.06257C22.7338 1.19875 23.5955 0.700704 24.6043 0.446517C26.0623 0.0828014 27.5488 -0.00399434 29.0395 0.000138791C30.8467 0.00633849 32.6539 0.022871 34.457 0.12C35.2309 0.161331 36.0048 0.376254 36.7583 0.587043C37.8324 0.888762 38.3899 1.70505 38.5043 2.77347C38.6145 3.79642 38.6329 4.83177 38.6207 5.86092C38.5982 7.81796 38.5083 9.77499 38.4798 11.7341C38.4593 13.098 38.4614 14.4661 38.5206 15.83C38.5573 16.6505 38.7575 17.4543 39.3435 18.0909C39.9153 18.7108 40.4319 18.7728 41.1548 18.3099C42.041 17.7416 42.721 16.9542 43.35 16.1235C45.829 12.8459 47.8485 9.29348 49.4515 5.49927C49.7966 4.68091 50.1152 3.85015 50.4766 3.04006C50.7645 2.39735 51.2015 1.88898 51.9489 1.80838C52.2858 1.77119 52.6289 1.79805 52.9699 1.79392C56.3944 1.76292 59.8188 1.72572 63.2433 1.70919C63.7313 1.70712 64.2316 1.74639 64.7054 1.85798C65.8101 2.11837 66.192 2.65361 65.902 3.95348C65.5896 5.34841 64.8871 6.57595 64.1704 7.78902C62.453 10.6987 60.364 13.3419 58.3506 16.0408C57.4052 17.3076 56.472 18.593 55.6429 19.9384C54.8424 21.2362 54.9649 22.2942 55.99 23.4205C56.9661 24.4931 58.0382 25.4768 59.0551 26.5121C60.3273 27.8099 61.6117 29.0974 62.843 30.4324C63.8436 31.5173 64.7299 32.7056 65.4303 34.0179C65.6549 34.4415 65.855 34.8982 65.9571 35.3632C66.1286 36.1485 65.806 36.7809 65.1219 37.2004C64.4236 37.6282 63.6558 37.841 62.8471 37.8555C60.3048 37.903 57.7645 37.9319 55.2222 37.9629C54.4953 37.9712 53.7581 38.0456 53.0454 37.9464C51.3342 37.7108 49.9007 36.8532 48.6919 35.6443C47.6933 34.644 46.7744 33.5612 45.8045 32.5299C44.9734 31.6455 44.1218 30.7796 43.2703 29.9137C43.1315 29.7731 42.9558 29.6677 42.7864 29.5603C41.4815 28.7275 40.3727 29.0044 39.5784 30.3518C39.0556 31.2363 38.8249 32.2179 38.7023 33.2222C38.6084 33.9869 38.5696 34.7577 38.5247 35.5285C38.445 36.9607 37.7773 37.748 36.0763 37.8369C34.3671 37.9257 32.6478 37.8803 30.9386 37.8038C29.0313 37.717 27.1894 37.2376 25.3945 36.5866C23.3729 35.855 21.4861 34.859 19.73 33.6066C17.7227 32.1745 15.9788 30.4592 14.3983 28.5663C12.2051 25.9397 10.2979 23.1064 8.51929 20.1863C6.62226 17.072 4.87429 13.873 3.27539 10.5934C2.25439 8.51025 1.29668 6.39409 0.310387 4.29239C0.285883 4.23866 0.26342 4.18287 0.240958 4.12914C-0.328764 2.7528 0.110269 1.96958 1.57439 1.80012C2.1094 1.73812 2.65054 1.72572 3.18963 1.72159C4.38625 1.71125 5.58491 1.71745 6.78154 1.71745C6.78154 1.70092 6.78154 1.68232 6.78154 1.66579Z" fill="#A3A3A3"/>
</svg>
